# xmcd
#
# Track frame offsets:
#  150
#  11974
#  31113
#  45704
#  56691
#  69226
#  80636
#  91823
#  103110
#  115431
#  130812
#  140174
#
# Disc length: 2055 seconds
#
# Revision: 0
# Processed by: cddbd v1.5.1PL2 Copyright (c) Steve Scherf et al.
# Submitted via: Collectorz.com Music Collector 6.9
#
DISCID=a608050c
DTITLE=Al Martino - Spanish Eyes
DYEAR=1900
DGENRE=Live
TTITLE0=Quando Quando Quando
TTITLE1=Feelings
TTITLE2=The More I See You
TTITLE3=Somewhere My Love
TTITLE4=Mary In The Morning
TTITLE5=Spanish Eyes
TTITLE6=Strangers In The Night
TTITLE7=Painted Tainted Rose
TTITLE8=Speak Softly Love
TTITLE9=I've Got To Be Me
TTITLE10=Can't Help Falling In Love
TTITLE11=Volare
EXTD=
EXTT0=
EXTT1=
EXTT2=
EXTT3=
EXTT4=
EXTT5=
EXTT6=
EXTT7=
EXTT8=
EXTT9=
EXTT10=
EXTT11=
PLAYORDER=
